<?xml version="1.0" encoding="UTF-8" standalone="no"?>
<svg width="179px" height="179px" viewBox="0 0 179 179" version="1.1" xmlns="http://www.w3.org/2000/svg" xmlns:xlink="http://www.w3.org/1999/xlink" xmlns:sketch="http://www.bohemiancoding.com/sketch/ns">
    <!-- Generator: Sketch 3.4.4 (17249) - http://www.bohemiancoding.com/sketch -->
    <title>171_cc</title>
    <desc>Created with Sketch.</desc>
    <defs></defs>
    <g id="Page-1" stroke="none" stroke-width="1" fill="none" fill-rule="evenodd" sketch:type="MSPage">
        <g id="171_cc" sketch:type="MSLayerGroup">
            <path d="M89.4,178.7 C40.3,178.7 0.4,138.8 0.4,89.7 C0.4,40.6 40.3,0.7 89.4,0.7 C138.5,0.7 178.4,40.6 178.4,89.7 C178.4,138.8 138.4,178.7 89.4,178.7 L89.4,178.7 Z M89.4,10.7 C45.8,10.7 10.4,46.1 10.4,89.7 C10.4,133.3 45.8,168.7 89.4,168.7 C133,168.7 168.4,133.3 168.4,89.7 C168.4,46.1 132.9,10.7 89.4,10.7 L89.4,10.7 Z" id="Shape" fill="#423D3D" sketch:type="MSShapeGroup"></path>
            <path d="M137,70.2 L41.7,70.2 C39.8,70.2 38.2,68.6 38.2,66.7 C38.2,64.8 39.8,63.2 41.7,63.2 L137,63.2 C138.9,63.2 140.5,64.8 140.5,66.7 C140.5,68.6 139,70.2 137,70.2 L137,70.2 Z" id="Shape" fill="#000000" sketch:type="MSShapeGroup"></path>
            <path d="M137,93.2 L41.7,93.2 C39.8,93.2 38.2,91.6 38.2,89.7 C38.2,87.8 39.8,86.2 41.7,86.2 L137,86.2 C138.9,86.2 140.5,87.8 140.5,89.7 C140.5,91.6 139,93.2 137,93.2 L137,93.2 Z" id="Shape" fill="#2D2D2D" sketch:type="MSShapeGroup"></path>
            <path d="M137,116.2 L41.7,116.2 C39.8,116.2 38.2,114.6 38.2,112.7 C38.2,110.8 39.8,109.2 41.7,109.2 L137,109.2 C138.9,109.2 140.5,110.8 140.5,112.7 C140.5,114.6 139,116.2 137,116.2 L137,116.2 Z" id="Shape" opacity="0.663712687" fill="#332F2F" sketch:type="MSShapeGroup"></path>
        </g>
    </g>
</svg>