<svg xmlns="http://www.w3.org/2000/svg" xmlns:xlink="http://www.w3.org/1999/xlink" version="1.1" x="0px" y="0px" viewBox="0 0 310.7 391.375" enable-background="new 0 0 310.7 313.1" xml:space="preserve"><g><path d="M155.4,259.7c-49.1,0-89-39.9-89-89c0-49.1,39.9-89,89-89c49.1,0,89,39.9,89,89C244.4,219.8,204.4,259.7,155.4,259.7z    M155.4,91.7c-43.6,0-79,35.4-79,79s35.4,79,79,79s79-35.4,79-79S198.9,91.7,155.4,91.7z"/></g><g><path d="M203,151.2h-95.3c-1.9,0-3.5-1.6-3.5-3.5s1.6-3.5,3.5-3.5H203c1.9,0,3.5,1.6,3.5,3.5S205,151.2,203,151.2z"/></g><g><path d="M203,174.2h-95.3c-1.9,0-3.5-1.6-3.5-3.5s1.6-3.5,3.5-3.5H203c1.9,0,3.5,1.6,3.5,3.5S205,174.2,203,174.2z"/></g><g><path d="M203,197.2h-95.3c-1.9,0-3.5-1.6-3.5-3.5s1.6-3.5,3.5-3.5H203c1.9,0,3.5,1.6,3.5,3.5S205,197.2,203,197.2z"/></g><text x="0" y="328.1" fill="#000000" font-size="5px" font-weight="bold" font-family="'Helvetica Neue', Helvetica, Arial-Unicode, Arial, Sans-serif"></text><text x="0" y="333.1" fill="#000000" font-size="5px" font-weight="bold" font-family="'Helvetica Neue', Helvetica, Arial-Unicode, Arial, Sans-serif"></text></svg>